<svg version="1.1" xmlns="http://www.w3.org/2000/svg" style="display: block;" viewBox="0 0 2048 2048" width="1024" height="1024" preserveAspectRatio="xMidYMid meet">
<path transform="translate(0,0)" fill="rgb(20,18,15)" d="M 0 0 L 2048 0 L 2048 2048 L 0 2048 L 0 0 z"/>
<path transform="translate(0,0)" fill="rgb(232,200,122)" d="M 1023.91 166.482 C 1026.48 170.915 1034.59 259.645 1036.41 272.588 C 1064.58 473.648 1103.33 733.962 1279.68 862.232 C 1411.83 958.355 1601.61 987.852 1759.79 1010.61 C 1800.7 1016.49 1843 1018.95 1883.96 1025.05 C 1870.08 1027.12 1853.51 1028.33 1839.22 1029.93 C 1807.38 1033.45 1775.58 1037.25 1743.8 1041.32 C 1707.62 1046.25 1671.57 1052.12 1635.69 1058.94 C 1467.04 1089.86 1285.66 1140.06 1183.19 1289.16 C 1128.41 1368.88 1099.44 1456.49 1077.1 1549.86 C 1063.51 1606.32 1052.58 1663.4 1044.37 1720.89 C 1039.81 1754.33 1035.6 1787.82 1031.73 1821.35 C 1029.86 1838.25 1027.67 1867.5 1024.69 1882.53 L 1024.45 1883.67 C 1022.87 1879.27 1019.65 1842.49 1018.98 1835.96 C 1016.52 1812.19 1013.55 1788.48 1010.07 1764.84 C 985.691 1595.81 953.003 1384.75 837.156 1252 C 701.012 1095.99 456.858 1063.57 262.778 1036.27 C 231.519 1031.87 193.679 1027.32 162.494 1025.25 C 196.535 1019.94 233.871 1017.93 268.427 1013.34 C 426.812 992.306 633.667 958.693 765.13 864.828 C 799.725 840.455 830.197 810.702 855.388 776.698 C 951.809 648.099 988.379 449.807 1009.48 293.234 C 1013.05 265.411 1016.26 237.543 1019.1 209.635 C 1020.49 196.523 1021.78 179.23 1023.91 166.482 z"/>
</svg>