<svg version="1.1" xmlns="http://www.w3.org/2000/svg" style="display: block;" viewBox="0 0 2048 2048" width="1024" height="1024" preserveAspectRatio="xMidYMid meet">
<path transform="translate(0,0)" fill="rgb(20,18,15)" d="M 0 0 L 2048 0 L 2048 2048 L 0 2048 L 0 0 z"/>
<path transform="translate(0,0)" fill="rgb(232,146,74)" d="M 1035.66 223.082 L 1038.25 225.075 C 1044.88 282.797 1112.55 292.273 1158.87 300.337 C 1177.09 355.582 1185.43 394.783 1157.61 449.64 C 1157.06 450.723 1156.49 451.797 1155.91 452.862 C 1191.52 454.174 1249.77 454.245 1256.48 403.933 C 1258.57 388.308 1236.79 373.557 1229.43 361.623 C 1206.46 326.233 1213.15 296.054 1237.07 265.196 C 1231.48 286.979 1233.22 306.089 1244.39 326.015 C 1259.87 353.608 1294.18 363.64 1312.75 386.154 C 1319.35 394.163 1317.39 426.453 1314.38 438.09 C 1305.87 471.023 1284.97 493.792 1258.69 514.234 L 1255.66 516.964 L 1256.31 518.049 C 1259.45 518.014 1261.03 518.009 1264.2 517.533 C 1285.26 516.2 1308.97 512.948 1328.1 503.51 C 1365.04 485.283 1382.31 442.429 1366.37 404.077 C 1384.13 421.034 1394.37 444.402 1394.78 468.96 C 1395.37 491.476 1386.34 510.437 1370.77 526.388 C 1366.81 530.406 1362.6 534.167 1358.16 537.647 L 1353.39 540.575 L 1353.33 541.617 C 1356.48 541.924 1356.55 541.906 1359.7 541.446 C 1386.44 536.902 1424.88 524.051 1441.3 500.558 C 1460.81 472.646 1442.14 456.259 1424.72 437.029 C 1395.45 404.723 1401.65 364.447 1427.49 332.918 C 1402.43 397.049 1469.12 426.218 1508.87 458.177 C 1512.59 522.075 1483.55 566.626 1423.5 588.47 C 1457.25 617.529 1518.75 651.444 1556.12 610.119 C 1570.47 594.245 1559.9 575.542 1555.24 558.478 C 1545.73 517.749 1570.95 478.646 1609.4 465.688 C 1595.3 479.513 1588.55 492.27 1588.18 512.486 C 1587.7 538.392 1597.62 563.925 1609.55 586.466 C 1614.63 596.075 1621.3 606.52 1625.67 616.233 C 1595.09 655.957 1558.84 695.957 1506.11 703.942 C 1517.65 712.434 1531.81 722.368 1543.42 728.757 C 1588.78 753.711 1613.57 747.046 1627.96 697.075 C 1637.85 662.753 1668 650.938 1701.83 652.235 C 1678.11 662.769 1667.17 673.661 1656.62 697.87 C 1648.34 716.876 1652.48 730.818 1648.9 749.057 C 1640.24 793.292 1592.52 802.083 1556.56 797.59 C 1583.79 817.815 1615.68 831.194 1649.97 826.529 C 1688.03 821.351 1682.03 794.118 1684.51 767.164 C 1687.99 729.519 1718.28 707.222 1753.56 699.824 C 1702.02 735.507 1720.79 795.363 1734.82 845.903 C 1727.13 860.696 1713.67 869.79 1699.31 877.449 C 1667.54 894.39 1633.19 899.171 1598.31 890.495 C 1614.98 929.579 1644.25 998.262 1704.02 982.108 C 1720.46 977.667 1723.85 951.105 1730.55 938.277 C 1751.81 900.33 1785.64 885.469 1826.69 893.932 C 1821.5 895.379 1814.29 897.115 1809.48 899.261 C 1763.02 919.991 1764.3 983.54 1755.37 1025.72 C 1712.99 1048.56 1659.84 1053.22 1616.04 1031.92 C 1616.94 1056.18 1618.4 1086.7 1637.41 1104.43 C 1645.89 1112.34 1657.43 1117.84 1669.2 1117.35 C 1695.32 1116.28 1712.04 1072.15 1760.15 1078.63 C 1770.92 1080.08 1781.02 1084.05 1791.19 1087.71 C 1767.94 1086.79 1750.67 1093.23 1733.28 1108.81 C 1705.53 1133.68 1697.1 1172.85 1653.2 1170.3 C 1627.77 1168.82 1610.31 1161.26 1592.54 1143.16 C 1587.64 1171.03 1585.67 1202.38 1602.85 1226.63 C 1615.33 1244.24 1638.35 1254.61 1657.11 1240.18 C 1666.16 1233.22 1672.18 1223.76 1679.52 1215.16 C 1698.33 1193.53 1726.04 1185.03 1754.06 1188.58 C 1766.22 1190.12 1773.97 1193.07 1784.47 1198.82 C 1771.02 1198.56 1761.02 1198.34 1748.33 1203.2 C 1720.45 1213.88 1701.64 1238.9 1688.14 1264.47 C 1684.5 1271.37 1681.21 1280.22 1676.45 1286.59 C 1663.73 1300.11 1637.85 1304.51 1620.48 1304.32 C 1592.82 1304.19 1566.39 1292.84 1547.25 1272.87 C 1539.91 1265.26 1533.6 1256.83 1527.59 1248.16 C 1531.5 1324.32 1556.89 1374.23 1642.04 1350.7 C 1623.73 1371.07 1600.14 1386.03 1572.13 1387.7 C 1552.57 1388.84 1533.35 1382.21 1518.67 1369.24 C 1514.52 1365.52 1509.95 1360.81 1507.09 1356.05 L 1504.99 1352.75 C 1503.85 1354.58 1505.24 1359.6 1505.82 1362.11 C 1514.28 1392.78 1537.33 1451.73 1580.79 1441.79 C 1593.61 1438.86 1604.66 1424.36 1614.49 1416.36 C 1639.9 1393.96 1671.15 1390.79 1701.93 1403.69 L 1700.48 1407.24 C 1654.91 1407.89 1630.49 1444.51 1609.05 1479.29 C 1604.2 1487.14 1598.54 1496.74 1592.09 1503.3 C 1558.38 1508.68 1523.93 1500.39 1496.36 1480.26 C 1473.52 1463.42 1465.4 1446.59 1456.81 1420.59 C 1436.85 1451.17 1412.92 1485.24 1419.8 1523.78 C 1423.65 1543 1441.2 1567.33 1463.39 1562.34 C 1470.74 1560.68 1478.16 1556.53 1485.41 1554.3 C 1526.62 1541.63 1567.35 1561.36 1587.15 1598.96 C 1579.9 1594.73 1572.73 1590.51 1564.64 1588.15 C 1521.41 1575.51 1477.2 1599.33 1441.9 1621.61 C 1408.63 1602.2 1371.72 1577.06 1351.7 1542.83 C 1346.13 1533.3 1342.18 1519.86 1339.07 1509.12 C 1316.06 1532.68 1276.53 1585.45 1306.76 1620.4 C 1317.2 1632.47 1337.26 1625.86 1350.73 1628.44 C 1387.54 1635.8 1412.23 1666.72 1415.34 1703.31 L 1411.94 1702.48 C 1390.48 1665.56 1352.47 1658.26 1313.1 1667.61 C 1305.26 1669.47 1285.82 1676.99 1279.56 1674.7 C 1229.2 1656.24 1223.11 1587.78 1227.33 1547.85 C 1205.53 1565.05 1182.89 1588.07 1179.55 1616.88 C 1176.05 1647.18 1190.36 1673.68 1213.13 1692.36 C 1164.53 1682.21 1128.4 1642.69 1139.86 1591.26 C 1140.94 1586.54 1142.19 1581.87 1143.6 1577.24 C 1118.92 1601.74 1073.46 1653.51 1104.3 1690.34 C 1114.41 1702.41 1139.16 1697.77 1152.99 1700.56 C 1186.28 1706.93 1210.27 1731.13 1219.76 1763.21 C 1218.62 1765.03 1218.72 1764.88 1216.74 1765.76 C 1194.73 1743.23 1171.5 1732.29 1139.45 1735.77 C 1119.97 1737.88 1101.7 1744.18 1082.57 1746.81 L 1080.92 1747.03 C 1079.85 1746.56 1078.79 1746.07 1077.74 1745.57 C 1058.75 1736.64 1040.61 1714.15 1034.5 1694.52 C 1023.82 1660.17 1029.91 1634 1044.69 1603.08 C 1005.1 1615.86 945.149 1623.48 931.96 1672.53 C 922.766 1706.72 948.657 1712.25 972.293 1724.25 C 984.071 1730.23 998.238 1743.59 1005.18 1755.12 C 1021.04 1782.73 1017.74 1802.27 1010.72 1830.91 C 1008.76 1816 1006.76 1806.42 997.802 1793.88 C 974.291 1760.94 925.66 1751.53 888.024 1745.63 C 886.929 1743.3 885.943 1740.91 885.068 1738.48 C 865.778 1684.2 869.188 1645.04 892.721 1594.38 C 862.389 1590.94 826.406 1591.6 802.916 1615.79 C 775.893 1643.62 805.936 1664.17 819.436 1687.24 C 826.531 1699.23 830.394 1712.85 830.646 1726.78 C 831.025 1748.43 823.519 1772.05 808.296 1787.77 C 813.264 1763.73 813.303 1741.76 801.115 1719.88 C 786.548 1693.73 759.037 1682.09 736.851 1664.57 L 735.926 1663.83 C 720.852 1603.9 748.372 1564.04 793.9 1528.81 C 757.161 1525.45 707.404 1537.03 689.241 1572.35 C 676.179 1597.74 676.354 1616.73 684.198 1643.38 C 677.928 1637.68 673.757 1632.88 669.32 1625.59 C 656.724 1604.72 652.79 1579.76 658.359 1556.03 C 664.588 1530.53 678.875 1517.54 700.501 1504.44 C 698.901 1504.48 697.302 1504.54 695.704 1504.61 C 664.604 1506.18 570.409 1539.85 605.714 1588.7 C 609.307 1593.67 618.965 1600.45 623.603 1606.12 C 634.332 1619.06 640.68 1635.06 641.735 1651.83 C 643.051 1674.61 633.25 1696.91 618.282 1713.69 C 623.995 1700.36 624.607 1690.45 622.646 1676.15 C 616.754 1633.17 572.975 1614.01 541.547 1591.12 L 540.473 1590.33 C 536.057 1568.32 542.425 1539.57 552.757 1520.01 C 572.203 1483.2 590.545 1471.46 627.967 1458.94 C 597.411 1435.05 552.653 1404.89 512.135 1423.52 C 499.117 1428.06 480.318 1448.78 486.933 1462.99 C 508.603 1509.55 487.333 1560.65 441.276 1581.97 C 478.349 1531.02 451.672 1475.23 422.395 1427.86 C 461.838 1381.06 482.099 1361.85 542.605 1342.75 C 524.045 1328.32 490.594 1304.25 466.354 1303.9 C 424.709 1303.3 430.123 1351.02 403.131 1374.69 C 384.514 1391.01 372.885 1393.45 348.945 1393.22 L 346.461 1392.66 L 346.343 1391.57 L 349.086 1390.7 C 430.83 1361.55 360.334 1244.23 478.875 1248.24 C 483.89 1249.24 486.244 1249.76 491.395 1249.96 L 491.155 1248.63 L 487.932 1246.48 C 464.58 1228.38 427.77 1210.84 397.622 1216.87 C 381.162 1220.17 366.64 1233.28 365.213 1250.55 C 364.42 1260.14 365.088 1269.84 363.716 1279.39 C 362.205 1290.38 358.3 1300.91 352.276 1310.22 C 337.341 1333.46 316.902 1343.09 290.972 1348.86 C 345.753 1311.05 325.707 1250.98 314.444 1196.65 C 339.255 1163.43 390.248 1145.76 430.588 1149.38 C 436.222 1149.88 441.992 1150.7 447.592 1151.52 C 443.317 1142.3 437.563 1129.25 432.771 1120.74 C 419.815 1097.74 401.727 1069.76 374.572 1062.74 C 332.324 1051.81 332.276 1077.43 318.25 1106.84 C 310.676 1122.72 296.37 1138.79 280.851 1146.94 C 259.091 1158.37 242.134 1158.26 219.296 1151.66 C 266.82 1147.67 281.643 1098.9 286.665 1058.92 C 288.132 1047.25 288.956 1033.41 291.896 1022.31 L 292.292 1020.85 C 340.678 1001.86 381.684 991.392 431.598 1013.07 C 430.059 984.928 426.519 943.725 396.297 930.736 C 364.997 917.284 349.004 954.512 322.689 963.912 C 301.529 971.471 286.318 969.294 266.208 961.096 C 263.846 960.175 263.172 959.714 260.982 958.388 C 262.376 957.191 266.958 957.756 269.35 957.792 C 276.251 955.524 282.557 955.724 292.06 951.757 C 319.284 941.461 331.124 919.397 348.433 897.884 C 378.346 860.705 425.208 877.122 455.389 903.285 C 463.308 871.893 456.714 822.141 426.141 804.394 C 395.773 786.765 381.083 820.72 363.492 837.105 C 353.939 845.984 342.338 852.362 329.723 855.67 C 306.847 861.906 286.759 857.447 266.639 845.884 C 269.788 846.003 272.938 846.081 276.089 846.118 C 316.069 846.465 342.443 814.96 360.817 783.071 C 364.857 776.059 371.624 760.414 377.03 755.822 C 389.194 745.491 413.729 739.635 429.435 740.813 C 472.863 744.072 491.791 765.746 518.215 794.869 C 516.2 717.882 492.651 670.024 407.572 695.544 C 442.674 652.545 501.444 641.299 539.351 687.34 C 540.887 689.867 542.537 691.745 544.378 694.054 L 541.696 681.078 C 534.085 653.423 522.422 624.719 497.6 607.898 C 486.259 599.452 466.933 598.749 456.458 609.82 C 422.809 645.383 384.305 667.853 336.507 636.675 C 389.246 644.559 417.606 602.572 442.36 563.459 C 445.897 557.871 453.092 544.749 458.973 543.31 C 479.686 538.241 515.8 545.554 533.833 555.266 C 566.596 572.911 581.071 593.735 592.081 627.319 C 615.446 593.947 655.333 523.338 606.039 490.796 C 589.739 480.035 575.221 491.097 558.582 494.024 C 518.217 501.122 479.757 484.062 460.642 447.277 C 471.337 453.133 481.455 458.324 493.702 460.142 C 535.273 466.314 574.767 448.888 607.582 425.648 C 615.34 428.938 632.533 440.024 639.917 445.664 C 676.795 473.825 698.887 492.064 706.419 538.418 C 730.73 513.957 759.405 481.935 751.261 444.468 C 748.757 432.951 742.345 422.546 730.045 420.97 C 721.241 419.856 711.679 421.443 702.925 420.255 C 674.883 416.448 649.112 395.089 638.504 369.099 C 634.256 358.69 632.249 348.575 629.891 337.726 C 661.545 396.25 710.26 385.233 765.07 370.21 C 794.974 381.463 814.437 412.328 821.034 442.504 C 825.378 462.373 824.08 481.302 820.171 501.057 C 847.403 476.798 873.809 449.639 868.722 409.767 C 865.629 385.525 853.757 368.303 834.582 353.59 C 835.937 353.867 837.29 354.155 838.641 354.452 C 875.352 362.556 901.492 387.148 909.774 424.692 C 913.14 439.953 909.004 454.987 905.622 469.901 C 928.363 447.825 961.965 406.314 952.74 371.293 C 942.01 330.561 895.265 357.428 865.746 334.887 C 837.963 313.672 832.128 300.889 824.732 268.525 C 856.584 327.016 915.673 311.723 968.468 296.869 C 990.991 312.922 1009.86 336.021 1016.26 363.446 C 1022.13 388.548 1017.29 421.324 1003.31 443.189 C 1041.03 435.687 1099.23 422.39 1113.3 381.363 C 1116.68 371.526 1116.71 344.662 1106.8 338.793 C 1081.22 323.646 1052.32 316.192 1038.57 286.535 C 1027.32 263.605 1027.7 248.149 1035.66 223.082 z"/>
<path transform="translate(0,0)" fill="rgb(20,18,15)" d="M 1000.1 586.155 C 1241.62 573.037 1448.12 758.056 1461.49 999.567 C 1474.87 1241.08 1290.07 1447.77 1048.58 1461.4 C 806.714 1475.06 599.641 1289.92 586.244 1048.04 C 572.847 806.168 758.207 599.294 1000.1 586.155 z"/>
<path transform="translate(0,0)" fill="rgb(223,89,40)" d="M 1219.76 1763.21 C 1220.33 1765.76 1221.01 1768.26 1221.03 1770.89 L 1220.98 1770.32 L 1220.73 1772.08 L 1220.58 1772.22 C 1219.68 1771.73 1217.35 1766.9 1216.74 1765.76 C 1218.72 1764.88 1218.62 1765.03 1219.76 1763.21 z"/>
<path transform="translate(0,0)" fill="rgb(223,89,40)" d="M 1701.93 1403.69 C 1710.16 1407.93 1708.39 1408.2 1700.48 1407.24 L 1701.93 1403.69 z"/>
<path transform="translate(0,0)" fill="rgb(223,89,40)" d="M 1415.34 1703.31 C 1415.55 1704.36 1416.5 1707.63 1415.38 1708.48 C 1414.1 1708.27 1412.39 1703.55 1411.94 1702.48 L 1415.34 1703.31 z"/>
<path transform="translate(0,0)" fill="rgb(223,89,40)" d="M 1035.66 223.082 C 1035.97 222.37 1036.62 220.106 1037.5 219.801 C 1038.17 220.231 1038.21 224.538 1038.25 225.075 L 1035.66 223.082 z"/>
</svg>